<mxfile host="Electron" modified="2024-05-16T01:16:42.741Z" agent="Mozilla/5.0 (Windows NT 10.0; Win64; x64) AppleWebKit/537.36 (KHTML, like Gecko) draw.io/24.2.5 Chrome/120.0.6099.109 Electron/28.1.0 Safari/537.36" etag="bzW74WhX6sl9KL0lmFA0" version="24.2.5" type="device">
  <diagram name="第 1 页" id="ewl9boTtj5eG1xmZE2dz">
    <mxGraphModel dx="98" dy="63" grid="1" gridSize="3.937" guides="1" tooltips="1" connect="1" arrows="1" fold="1" page="1" pageScale="1" pageWidth="48" pageHeight="48" background="#464647" math="0" shadow="0">
      <root>
        <mxCell id="0" />
        <mxCell id="1" parent="0" />
        <mxCell id="tneqvr_D7_-3OC6fO03h-1" value="" style="endArrow=none;html=1;rounded=0;strokeColor=#E6E6E6;strokeWidth=2;" parent="1" edge="1">
          <mxGeometry width="50" height="50" relative="1" as="geometry">
            <mxPoint x="23.91" y="43.12" as="sourcePoint" />
            <mxPoint x="23.91" y="4.12" as="targetPoint" />
          </mxGeometry>
        </mxCell>
        <mxCell id="VMPgF3lo1GRiGYO-Sckb-1" value="" style="rounded=0;whiteSpace=wrap;html=1;fillColor=none;strokeColor=#E6E6E6;strokeWidth=2;" vertex="1" parent="1">
          <mxGeometry x="4" y="7.87" width="15.68" height="31.5" as="geometry" />
        </mxCell>
        <mxCell id="VMPgF3lo1GRiGYO-Sckb-2" value="" style="rounded=0;whiteSpace=wrap;html=1;fillColor=#E6E6E6;strokeColor=#E6E6E6;strokeWidth=2;" vertex="1" parent="1">
          <mxGeometry x="27.557000000000002" y="7.997" width="15.68" height="31.5" as="geometry" />
        </mxCell>
      </root>
    </mxGraphModel>
  </diagram>
</mxfile>
